<svg width="264" height="264" viewBox="0 0 264 264" fill="none" xmlns="http://www.w3.org/2000/svg">
<path d="M132 1.49802L143.673 14.5183L144.277 15.1916L145.007 14.6586L159.133 4.34981L167.844 19.5126L168.295 20.2967L169.12 19.9272L185.08 12.7805L190.448 29.4232L190.726 30.2838L191.61 30.0939L208.707 26.4217L210.498 43.8168L210.591 44.7163L211.495 44.7144L228.982 44.6771L227.117 62.0645L227.02 62.9636L227.905 63.1497L245.018 66.749L239.579 83.3686L239.298 84.2281L240.124 84.5941L256.115 91.6727L247.339 106.798L246.885 107.58L247.618 108.11L261.787 118.359L250.058 131.329L249.452 132L250.058 132.671L261.787 145.641L247.618 155.89L246.885 156.42L247.339 157.202L256.115 172.327L240.124 179.406L239.298 179.772L239.579 180.631L245.018 197.251L227.905 200.85L227.02 201.036L227.117 201.936L228.982 219.323L211.495 219.286L210.591 219.284L210.498 220.183L208.707 237.578L191.61 233.906L190.726 233.716L190.448 234.577L185.08 251.219L169.12 244.073L168.295 243.703L167.844 244.487L159.133 259.65L145.007 249.341L144.277 248.808L143.673 249.482L132 262.502L120.327 249.482L119.723 248.808L118.993 249.341L104.867 259.65L96.1559 244.487L95.7054 243.703L94.8801 244.073L78.9201 251.219L73.5517 234.577L73.2741 233.716L72.39 233.906L55.2929 237.578L53.502 220.183L53.4094 219.284L52.5052 219.286L35.0181 219.323L36.8831 201.936L36.9795 201.036L36.0946 200.85L18.982 197.251L24.4212 180.631L24.7025 179.772L23.8756 179.406L7.88525 172.327L16.661 157.202L17.1148 156.42L16.3821 155.89L2.21294 145.641L13.9417 132.671L14.5482 132L13.9417 131.329L2.21293 118.359L16.3821 108.11L17.1148 107.58L16.661 106.798L7.88525 91.6727L23.8756 84.5941L24.7025 84.2281L24.4212 83.3686L18.982 66.749L36.0946 63.1497L36.9795 62.9636L36.8831 62.0645L35.0181 44.6771L52.5052 44.7144L53.4094 44.7163L53.502 43.8168L55.2929 26.4217L72.39 30.0939L73.2741 30.2838L73.5517 29.4232L78.9201 12.7805L94.8801 19.9272L95.7054 20.2967L96.1559 19.5126L104.867 4.34981L118.993 14.6586L119.723 15.1916L120.327 14.5183L132 1.49802Z" stroke="#4100CB" stroke-width="2"/>
</svg>
