<svg width="22" height="24" viewBox="0 0 22 24" fill="none" xmlns="http://www.w3.org/2000/svg">
<path fill-rule="evenodd" clip-rule="evenodd" d="M2.87334 7.0713C2.87334 3.18292 6.13749 0.0307617 10.164 0.0307617C14.1905 0.0307617 17.4547 3.18292 17.4547 7.0713C17.4547 10.9597 14.1905 14.1118 10.164 14.1118C6.13749 14.1118 2.87334 10.9597 2.87334 7.0713ZM10.164 11.2956C7.7481 11.2956 5.78961 9.40432 5.78961 7.0713C5.78961 4.73827 7.7481 2.84698 10.164 2.84698C12.5799 2.84698 14.5384 4.73827 14.5384 7.0713C14.5384 9.40432 12.5799 11.2956 10.164 11.2956Z" fill="black"/>
<path d="M0.171021 12.886C1.99684 15.8059 5.15623 17.8608 8.83439 18.2638V21.1524H5.78961V23.9686H14.5384V21.1524H11.7507V18.2328C17.4425 17.4853 21.829 12.773 21.829 7.0713C21.829 4.86955 21.1749 2.81532 20.0441 1.07997L17.5597 2.55586C18.4167 3.86199 18.9128 5.4107 18.9128 7.0713C18.9128 11.7374 14.9958 15.5199 10.164 15.5199C6.97484 15.5199 4.18426 13.8721 2.65541 11.4101L0.171021 12.886Z" fill="black"/>
</svg>
