<svg width="24" height="22" viewBox="0 0 24 22" fill="none" xmlns="http://www.w3.org/2000/svg">
<path fill-rule="evenodd" clip-rule="evenodd" d="M18.0386 1.04938C16.7606 -0.228699 14.6884 -0.228699 13.4103 1.04938L11.8675 2.59216C11.8018 2.65792 11.7394 2.72578 11.6804 2.79552C11.6214 2.72579 11.5591 2.65794 11.4933 2.5922L9.95053 1.04942C8.67245 -0.228661 6.60028 -0.228661 5.3222 1.04942C4.04412 2.3275 4.04412 4.39967 5.3222 5.67775L6.28072 6.63627H0V13.1817H2.18182V21.909H21.8182V13.1817H24V6.63627H17.0801L18.0386 5.67771C19.3167 4.39964 19.3167 2.32746 18.0386 1.04938ZM14.9531 5.67771L16.4959 4.13494C16.9219 3.70891 16.9219 3.01818 16.4959 2.59216C16.0698 2.16613 15.3791 2.16613 14.9531 2.59216L13.4103 4.13494C12.9843 4.56096 12.9843 5.25169 13.4103 5.67771C13.8363 6.10374 14.5271 6.10374 14.9531 5.67771ZM9.95053 4.13497L8.40775 2.5922C7.98173 2.16617 7.291 2.16617 6.86497 2.5922C6.43895 3.01822 6.43895 3.70895 6.86497 4.13497L8.40775 5.67775C8.83378 6.10378 9.5245 6.10378 9.95053 5.67775C10.3766 5.25173 10.3766 4.561 9.95053 4.13497ZM21.8182 8.81809V10.9999H2.18182V8.81809H21.8182ZM13.0001 13.1817H19.6364V19.7272H13.0001V13.1817ZM11.0001 13.1817V19.7272H4.36364V13.1817H11.0001Z" fill="black"/>
</svg>
